<mxfile host="app.diagrams.net" modified="2023-11-21T15:56:30.255Z" agent="Mozilla/5.0 (Macintosh; Intel Mac OS X 10_15_7) AppleWebKit/537.36 (KHTML, like Gecko) Chrome/119.0.0.0 Safari/537.36" etag="2iuoUnk0qgRc1B9n-Ki9" version="22.1.3" type="github">
  <diagram name="페이지-1" id="e5oMKRUOVlU3u5aCqrZI">
    <mxGraphModel dx="792" dy="2183" grid="1" gridSize="10" guides="1" tooltips="1" connect="1" arrows="1" fold="1" page="1" pageScale="1" pageWidth="827" pageHeight="1169" math="0" shadow="0">
      <root>
        <mxCell id="0" />
        <mxCell id="1" parent="0" />
        <mxCell id="I8BUf6Ba05-fsz5HOskR-6" style="edgeStyle=orthogonalEdgeStyle;rounded=0;orthogonalLoop=1;jettySize=auto;html=1;entryX=0;entryY=0.5;entryDx=0;entryDy=0;" parent="1" source="I8BUf6Ba05-fsz5HOskR-1" target="I8BUf6Ba05-fsz5HOskR-2" edge="1">
          <mxGeometry relative="1" as="geometry" />
        </mxCell>
        <mxCell id="I8BUf6Ba05-fsz5HOskR-1" value="앱 실행" style="rounded=1;whiteSpace=wrap;html=1;" parent="1" vertex="1">
          <mxGeometry x="100" y="150" width="120" height="60" as="geometry" />
        </mxCell>
        <mxCell id="I8BUf6Ba05-fsz5HOskR-2" value="로그인 여부" style="rhombus;whiteSpace=wrap;html=1;" parent="1" vertex="1">
          <mxGeometry x="310" y="140" width="120" height="80" as="geometry" />
        </mxCell>
        <mxCell id="I8BUf6Ba05-fsz5HOskR-3" value="" style="endArrow=classic;html=1;rounded=0;" parent="1" edge="1">
          <mxGeometry width="50" height="50" relative="1" as="geometry">
            <mxPoint x="370" y="220" as="sourcePoint" />
            <mxPoint x="370" y="290" as="targetPoint" />
          </mxGeometry>
        </mxCell>
        <mxCell id="I8BUf6Ba05-fsz5HOskR-9" value="N" style="edgeLabel;html=1;align=center;verticalAlign=middle;resizable=0;points=[];" parent="I8BUf6Ba05-fsz5HOskR-3" vertex="1" connectable="0">
          <mxGeometry x="-0.1714" y="-3" relative="1" as="geometry">
            <mxPoint x="2" as="offset" />
          </mxGeometry>
        </mxCell>
        <mxCell id="I8BUf6Ba05-fsz5HOskR-4" value="" style="endArrow=classic;html=1;rounded=0;" parent="1" edge="1">
          <mxGeometry width="50" height="50" relative="1" as="geometry">
            <mxPoint x="430" y="180" as="sourcePoint" />
            <mxPoint x="530" y="180" as="targetPoint" />
          </mxGeometry>
        </mxCell>
        <mxCell id="I8BUf6Ba05-fsz5HOskR-8" value="Y" style="edgeLabel;html=1;align=center;verticalAlign=middle;resizable=0;points=[];" parent="I8BUf6Ba05-fsz5HOskR-4" vertex="1" connectable="0">
          <mxGeometry x="-0.12" y="4" relative="1" as="geometry">
            <mxPoint as="offset" />
          </mxGeometry>
        </mxCell>
        <mxCell id="XiqiXXjmQKmeYjPqb1oR-11" style="edgeStyle=orthogonalEdgeStyle;rounded=0;orthogonalLoop=1;jettySize=auto;html=1;" edge="1" parent="1" source="I8BUf6Ba05-fsz5HOskR-7">
          <mxGeometry relative="1" as="geometry">
            <mxPoint x="250" y="180" as="targetPoint" />
          </mxGeometry>
        </mxCell>
        <mxCell id="I8BUf6Ba05-fsz5HOskR-7" value="휴대폰 번호로&lt;br&gt;로그인" style="rounded=0;whiteSpace=wrap;html=1;" parent="1" vertex="1">
          <mxGeometry x="310" y="290" width="120" height="60" as="geometry" />
        </mxCell>
        <mxCell id="XiqiXXjmQKmeYjPqb1oR-6" style="edgeStyle=orthogonalEdgeStyle;rounded=0;orthogonalLoop=1;jettySize=auto;html=1;entryX=0;entryY=0.5;entryDx=0;entryDy=0;" edge="1" parent="1" source="I8BUf6Ba05-fsz5HOskR-10">
          <mxGeometry relative="1" as="geometry">
            <mxPoint x="730" y="180" as="targetPoint" />
          </mxGeometry>
        </mxCell>
        <mxCell id="I8BUf6Ba05-fsz5HOskR-10" value="메인화면&lt;br&gt;이동" style="rounded=0;whiteSpace=wrap;html=1;" parent="1" vertex="1">
          <mxGeometry x="530" y="150" width="120" height="60" as="geometry" />
        </mxCell>
        <mxCell id="XiqiXXjmQKmeYjPqb1oR-18" value="" style="edgeStyle=orthogonalEdgeStyle;rounded=0;orthogonalLoop=1;jettySize=auto;html=1;" edge="1" parent="1" source="XiqiXXjmQKmeYjPqb1oR-16" target="XiqiXXjmQKmeYjPqb1oR-17">
          <mxGeometry relative="1" as="geometry" />
        </mxCell>
        <mxCell id="XiqiXXjmQKmeYjPqb1oR-19" value="Y" style="edgeLabel;html=1;align=center;verticalAlign=middle;resizable=0;points=[];" vertex="1" connectable="0" parent="XiqiXXjmQKmeYjPqb1oR-18">
          <mxGeometry x="-0.0889" relative="1" as="geometry">
            <mxPoint as="offset" />
          </mxGeometry>
        </mxCell>
        <mxCell id="XiqiXXjmQKmeYjPqb1oR-21" value="" style="edgeStyle=orthogonalEdgeStyle;rounded=0;orthogonalLoop=1;jettySize=auto;html=1;" edge="1" parent="1" source="XiqiXXjmQKmeYjPqb1oR-16" target="XiqiXXjmQKmeYjPqb1oR-20">
          <mxGeometry relative="1" as="geometry" />
        </mxCell>
        <mxCell id="XiqiXXjmQKmeYjPqb1oR-22" value="N" style="edgeLabel;html=1;align=center;verticalAlign=middle;resizable=0;points=[];" vertex="1" connectable="0" parent="XiqiXXjmQKmeYjPqb1oR-21">
          <mxGeometry x="-0.1733" y="-1" relative="1" as="geometry">
            <mxPoint as="offset" />
          </mxGeometry>
        </mxCell>
        <mxCell id="XiqiXXjmQKmeYjPqb1oR-16" value="최초 앱 실행&lt;br&gt;여부" style="rhombus;whiteSpace=wrap;html=1;" vertex="1" parent="1">
          <mxGeometry x="730" y="140" width="110" height="80" as="geometry" />
        </mxCell>
        <mxCell id="XiqiXXjmQKmeYjPqb1oR-17" value="위치 권한 요청" style="whiteSpace=wrap;html=1;" vertex="1" parent="1">
          <mxGeometry x="725" y="310" width="120" height="60" as="geometry" />
        </mxCell>
        <mxCell id="XiqiXXjmQKmeYjPqb1oR-24" value="" style="edgeStyle=orthogonalEdgeStyle;rounded=0;orthogonalLoop=1;jettySize=auto;html=1;" edge="1" parent="1" target="XiqiXXjmQKmeYjPqb1oR-23">
          <mxGeometry relative="1" as="geometry">
            <mxPoint x="1205" y="180" as="sourcePoint" />
          </mxGeometry>
        </mxCell>
        <mxCell id="XiqiXXjmQKmeYjPqb1oR-72" value="" style="edgeStyle=orthogonalEdgeStyle;rounded=0;orthogonalLoop=1;jettySize=auto;html=1;" edge="1" parent="1" source="XiqiXXjmQKmeYjPqb1oR-20" target="XiqiXXjmQKmeYjPqb1oR-71">
          <mxGeometry relative="1" as="geometry" />
        </mxCell>
        <mxCell id="XiqiXXjmQKmeYjPqb1oR-20" value="매칭 대기 화면" style="whiteSpace=wrap;html=1;" vertex="1" parent="1">
          <mxGeometry x="915" y="150" width="120" height="60" as="geometry" />
        </mxCell>
        <mxCell id="XiqiXXjmQKmeYjPqb1oR-26" value="" style="edgeStyle=orthogonalEdgeStyle;rounded=0;orthogonalLoop=1;jettySize=auto;html=1;" edge="1" parent="1" source="XiqiXXjmQKmeYjPqb1oR-23" target="XiqiXXjmQKmeYjPqb1oR-25">
          <mxGeometry relative="1" as="geometry" />
        </mxCell>
        <mxCell id="XiqiXXjmQKmeYjPqb1oR-30" value="N" style="edgeLabel;html=1;align=center;verticalAlign=middle;resizable=0;points=[];" vertex="1" connectable="0" parent="XiqiXXjmQKmeYjPqb1oR-26">
          <mxGeometry x="-0.1484" relative="1" as="geometry">
            <mxPoint as="offset" />
          </mxGeometry>
        </mxCell>
        <mxCell id="XiqiXXjmQKmeYjPqb1oR-33" value="" style="edgeStyle=orthogonalEdgeStyle;rounded=0;orthogonalLoop=1;jettySize=auto;html=1;" edge="1" parent="1" source="XiqiXXjmQKmeYjPqb1oR-23" target="XiqiXXjmQKmeYjPqb1oR-32">
          <mxGeometry relative="1" as="geometry" />
        </mxCell>
        <mxCell id="XiqiXXjmQKmeYjPqb1oR-34" value="Y" style="edgeLabel;html=1;align=center;verticalAlign=middle;resizable=0;points=[];" vertex="1" connectable="0" parent="XiqiXXjmQKmeYjPqb1oR-33">
          <mxGeometry x="-0.1556" y="-3" relative="1" as="geometry">
            <mxPoint x="2" as="offset" />
          </mxGeometry>
        </mxCell>
        <mxCell id="XiqiXXjmQKmeYjPqb1oR-23" value="위치 권한 허용&lt;br&gt;여부" style="rhombus;whiteSpace=wrap;html=1;" vertex="1" parent="1">
          <mxGeometry x="1305" y="140" width="115" height="80" as="geometry" />
        </mxCell>
        <mxCell id="XiqiXXjmQKmeYjPqb1oR-25" value="위치 권한 요청" style="whiteSpace=wrap;html=1;" vertex="1" parent="1">
          <mxGeometry x="1497.5" y="150" width="120" height="60" as="geometry" />
        </mxCell>
        <mxCell id="XiqiXXjmQKmeYjPqb1oR-41" style="edgeStyle=orthogonalEdgeStyle;rounded=0;orthogonalLoop=1;jettySize=auto;html=1;entryX=0.5;entryY=0;entryDx=0;entryDy=0;" edge="1" parent="1" source="XiqiXXjmQKmeYjPqb1oR-32" target="XiqiXXjmQKmeYjPqb1oR-39">
          <mxGeometry relative="1" as="geometry" />
        </mxCell>
        <mxCell id="XiqiXXjmQKmeYjPqb1oR-42" style="edgeStyle=orthogonalEdgeStyle;rounded=0;orthogonalLoop=1;jettySize=auto;html=1;entryX=0.5;entryY=0;entryDx=0;entryDy=0;" edge="1" parent="1" source="XiqiXXjmQKmeYjPqb1oR-32" target="XiqiXXjmQKmeYjPqb1oR-38">
          <mxGeometry relative="1" as="geometry" />
        </mxCell>
        <mxCell id="XiqiXXjmQKmeYjPqb1oR-43" style="edgeStyle=orthogonalEdgeStyle;rounded=0;orthogonalLoop=1;jettySize=auto;html=1;entryX=0.5;entryY=0;entryDx=0;entryDy=0;" edge="1" parent="1" source="XiqiXXjmQKmeYjPqb1oR-32" target="XiqiXXjmQKmeYjPqb1oR-40">
          <mxGeometry relative="1" as="geometry" />
        </mxCell>
        <mxCell id="XiqiXXjmQKmeYjPqb1oR-32" value="접속중인 친구 찾기" style="whiteSpace=wrap;html=1;" vertex="1" parent="1">
          <mxGeometry x="1302.5" y="310" width="120" height="60" as="geometry" />
        </mxCell>
        <mxCell id="XiqiXXjmQKmeYjPqb1oR-51" style="edgeStyle=orthogonalEdgeStyle;rounded=0;orthogonalLoop=1;jettySize=auto;html=1;entryX=0.5;entryY=0;entryDx=0;entryDy=0;" edge="1" parent="1" source="XiqiXXjmQKmeYjPqb1oR-38" target="XiqiXXjmQKmeYjPqb1oR-44">
          <mxGeometry relative="1" as="geometry" />
        </mxCell>
        <mxCell id="XiqiXXjmQKmeYjPqb1oR-38" value="친구 목록에서 찾기" style="rounded=0;whiteSpace=wrap;html=1;" vertex="1" parent="1">
          <mxGeometry x="1302.5" y="440" width="120" height="60" as="geometry" />
        </mxCell>
        <mxCell id="XiqiXXjmQKmeYjPqb1oR-39" value="닉네임으로 찾기" style="rounded=0;whiteSpace=wrap;html=1;" vertex="1" parent="1">
          <mxGeometry x="1120" y="440" width="120" height="60" as="geometry" />
        </mxCell>
        <mxCell id="XiqiXXjmQKmeYjPqb1oR-40" value="휴대폰 번호로 찾기" style="rounded=0;whiteSpace=wrap;html=1;" vertex="1" parent="1">
          <mxGeometry x="1490" y="440" width="120" height="60" as="geometry" />
        </mxCell>
        <mxCell id="XiqiXXjmQKmeYjPqb1oR-60" style="edgeStyle=orthogonalEdgeStyle;rounded=0;orthogonalLoop=1;jettySize=auto;html=1;entryX=0.5;entryY=0;entryDx=0;entryDy=0;" edge="1" parent="1" source="XiqiXXjmQKmeYjPqb1oR-44">
          <mxGeometry relative="1" as="geometry">
            <mxPoint x="1363" y="690" as="targetPoint" />
          </mxGeometry>
        </mxCell>
        <mxCell id="XiqiXXjmQKmeYjPqb1oR-44" value="팀 생성 여부" style="rhombus;whiteSpace=wrap;html=1;" vertex="1" parent="1">
          <mxGeometry x="1308" y="570" width="110" height="80" as="geometry" />
        </mxCell>
        <mxCell id="XiqiXXjmQKmeYjPqb1oR-48" value="" style="endArrow=none;html=1;rounded=0;" edge="1" parent="1">
          <mxGeometry width="50" height="50" relative="1" as="geometry">
            <mxPoint x="1180" y="610" as="sourcePoint" />
            <mxPoint x="1180" y="500" as="targetPoint" />
          </mxGeometry>
        </mxCell>
        <mxCell id="XiqiXXjmQKmeYjPqb1oR-49" value="" style="endArrow=classic;html=1;rounded=0;entryX=0;entryY=0.5;entryDx=0;entryDy=0;" edge="1" parent="1" target="XiqiXXjmQKmeYjPqb1oR-44">
          <mxGeometry width="50" height="50" relative="1" as="geometry">
            <mxPoint x="1180" y="610" as="sourcePoint" />
            <mxPoint x="1230" y="590" as="targetPoint" />
          </mxGeometry>
        </mxCell>
        <mxCell id="XiqiXXjmQKmeYjPqb1oR-53" value="" style="endArrow=none;html=1;rounded=0;" edge="1" parent="1">
          <mxGeometry width="50" height="50" relative="1" as="geometry">
            <mxPoint x="1550" y="610" as="sourcePoint" />
            <mxPoint x="1550" y="500" as="targetPoint" />
          </mxGeometry>
        </mxCell>
        <mxCell id="XiqiXXjmQKmeYjPqb1oR-54" value="" style="endArrow=classic;html=1;rounded=0;" edge="1" parent="1">
          <mxGeometry width="50" height="50" relative="1" as="geometry">
            <mxPoint x="1550" y="610" as="sourcePoint" />
            <mxPoint x="1420" y="610" as="targetPoint" />
          </mxGeometry>
        </mxCell>
        <mxCell id="XiqiXXjmQKmeYjPqb1oR-79" value="" style="edgeStyle=orthogonalEdgeStyle;rounded=0;orthogonalLoop=1;jettySize=auto;html=1;" edge="1" parent="1" source="XiqiXXjmQKmeYjPqb1oR-56" target="XiqiXXjmQKmeYjPqb1oR-78">
          <mxGeometry relative="1" as="geometry" />
        </mxCell>
        <mxCell id="XiqiXXjmQKmeYjPqb1oR-56" value="매칭 시작" style="whiteSpace=wrap;html=1;" vertex="1" parent="1">
          <mxGeometry x="1303" y="690" width="120" height="60" as="geometry" />
        </mxCell>
        <mxCell id="XiqiXXjmQKmeYjPqb1oR-74" style="edgeStyle=orthogonalEdgeStyle;rounded=0;orthogonalLoop=1;jettySize=auto;html=1;entryX=0.5;entryY=1;entryDx=0;entryDy=0;" edge="1" parent="1" source="XiqiXXjmQKmeYjPqb1oR-65" target="XiqiXXjmQKmeYjPqb1oR-20">
          <mxGeometry relative="1" as="geometry" />
        </mxCell>
        <mxCell id="XiqiXXjmQKmeYjPqb1oR-75" value="Y" style="edgeLabel;html=1;align=center;verticalAlign=middle;resizable=0;points=[];" vertex="1" connectable="0" parent="XiqiXXjmQKmeYjPqb1oR-74">
          <mxGeometry x="-0.7362" y="2" relative="1" as="geometry">
            <mxPoint y="-2" as="offset" />
          </mxGeometry>
        </mxCell>
        <mxCell id="XiqiXXjmQKmeYjPqb1oR-83" value="" style="edgeStyle=orthogonalEdgeStyle;rounded=0;orthogonalLoop=1;jettySize=auto;html=1;" edge="1" parent="1" source="XiqiXXjmQKmeYjPqb1oR-65" target="XiqiXXjmQKmeYjPqb1oR-82">
          <mxGeometry relative="1" as="geometry" />
        </mxCell>
        <mxCell id="XiqiXXjmQKmeYjPqb1oR-84" value="N" style="edgeLabel;html=1;align=center;verticalAlign=middle;resizable=0;points=[];" vertex="1" connectable="0" parent="XiqiXXjmQKmeYjPqb1oR-83">
          <mxGeometry x="-0.14" y="-1" relative="1" as="geometry">
            <mxPoint as="offset" />
          </mxGeometry>
        </mxCell>
        <mxCell id="XiqiXXjmQKmeYjPqb1oR-65" value="팀 접속 변화&lt;br&gt;여부" style="rhombus;whiteSpace=wrap;html=1;" vertex="1" parent="1">
          <mxGeometry x="1303" y="1000" width="120" height="80" as="geometry" />
        </mxCell>
        <mxCell id="XiqiXXjmQKmeYjPqb1oR-71" value="매칭 시작 클릭" style="whiteSpace=wrap;html=1;" vertex="1" parent="1">
          <mxGeometry x="1115" y="150" width="120" height="60" as="geometry" />
        </mxCell>
        <mxCell id="XiqiXXjmQKmeYjPqb1oR-80" style="edgeStyle=orthogonalEdgeStyle;rounded=0;orthogonalLoop=1;jettySize=auto;html=1;" edge="1" parent="1" source="XiqiXXjmQKmeYjPqb1oR-78" target="XiqiXXjmQKmeYjPqb1oR-65">
          <mxGeometry relative="1" as="geometry" />
        </mxCell>
        <mxCell id="XiqiXXjmQKmeYjPqb1oR-78" value="매칭 중 화면" style="whiteSpace=wrap;html=1;" vertex="1" parent="1">
          <mxGeometry x="1303" y="830" width="120" height="60" as="geometry" />
        </mxCell>
        <mxCell id="XiqiXXjmQKmeYjPqb1oR-93" value="" style="edgeStyle=orthogonalEdgeStyle;rounded=0;orthogonalLoop=1;jettySize=auto;html=1;" edge="1" parent="1" source="XiqiXXjmQKmeYjPqb1oR-82" target="XiqiXXjmQKmeYjPqb1oR-92">
          <mxGeometry relative="1" as="geometry" />
        </mxCell>
        <mxCell id="XiqiXXjmQKmeYjPqb1oR-111" value="N" style="edgeLabel;html=1;align=center;verticalAlign=middle;resizable=0;points=[];" vertex="1" connectable="0" parent="XiqiXXjmQKmeYjPqb1oR-93">
          <mxGeometry x="-0.2284" y="2" relative="1" as="geometry">
            <mxPoint x="-1" as="offset" />
          </mxGeometry>
        </mxCell>
        <mxCell id="XiqiXXjmQKmeYjPqb1oR-82" value="매칭 진행 여부" style="rhombus;whiteSpace=wrap;html=1;" vertex="1" parent="1">
          <mxGeometry x="1523" y="1000" width="117" height="80" as="geometry" />
        </mxCell>
        <mxCell id="XiqiXXjmQKmeYjPqb1oR-86" value="" style="endArrow=none;html=1;rounded=0;" edge="1" parent="1">
          <mxGeometry width="50" height="50" relative="1" as="geometry">
            <mxPoint x="1580" y="1000" as="sourcePoint" />
            <mxPoint x="1580" y="920" as="targetPoint" />
          </mxGeometry>
        </mxCell>
        <mxCell id="XiqiXXjmQKmeYjPqb1oR-88" value="Y" style="edgeLabel;html=1;align=center;verticalAlign=middle;resizable=0;points=[];" vertex="1" connectable="0" parent="XiqiXXjmQKmeYjPqb1oR-86">
          <mxGeometry x="-0.175" relative="1" as="geometry">
            <mxPoint as="offset" />
          </mxGeometry>
        </mxCell>
        <mxCell id="XiqiXXjmQKmeYjPqb1oR-87" value="" style="endArrow=classic;html=1;rounded=0;" edge="1" parent="1">
          <mxGeometry width="50" height="50" relative="1" as="geometry">
            <mxPoint x="1580" y="920" as="sourcePoint" />
            <mxPoint x="1360" y="920" as="targetPoint" />
          </mxGeometry>
        </mxCell>
        <mxCell id="XiqiXXjmQKmeYjPqb1oR-102" value="" style="edgeStyle=orthogonalEdgeStyle;rounded=0;orthogonalLoop=1;jettySize=auto;html=1;" edge="1" parent="1" source="XiqiXXjmQKmeYjPqb1oR-92" target="XiqiXXjmQKmeYjPqb1oR-101">
          <mxGeometry relative="1" as="geometry" />
        </mxCell>
        <mxCell id="XiqiXXjmQKmeYjPqb1oR-112" value="N" style="edgeLabel;html=1;align=center;verticalAlign=middle;resizable=0;points=[];" vertex="1" connectable="0" parent="XiqiXXjmQKmeYjPqb1oR-102">
          <mxGeometry x="0.0167" y="-2" relative="1" as="geometry">
            <mxPoint x="-1" as="offset" />
          </mxGeometry>
        </mxCell>
        <mxCell id="XiqiXXjmQKmeYjPqb1oR-92" value="유효시간 초과&lt;br&gt;여부" style="rhombus;whiteSpace=wrap;html=1;" vertex="1" parent="1">
          <mxGeometry x="1738.5" y="1000" width="121.5" height="80" as="geometry" />
        </mxCell>
        <mxCell id="XiqiXXjmQKmeYjPqb1oR-94" value="" style="endArrow=none;html=1;rounded=0;" edge="1" parent="1">
          <mxGeometry width="50" height="50" relative="1" as="geometry">
            <mxPoint x="1800" y="1000" as="sourcePoint" />
            <mxPoint x="1800" y="40" as="targetPoint" />
          </mxGeometry>
        </mxCell>
        <mxCell id="XiqiXXjmQKmeYjPqb1oR-98" value="Y" style="edgeLabel;html=1;align=center;verticalAlign=middle;resizable=0;points=[];" vertex="1" connectable="0" parent="XiqiXXjmQKmeYjPqb1oR-94">
          <mxGeometry x="-0.525" y="-2" relative="1" as="geometry">
            <mxPoint x="-2" as="offset" />
          </mxGeometry>
        </mxCell>
        <mxCell id="XiqiXXjmQKmeYjPqb1oR-96" value="" style="endArrow=none;html=1;rounded=0;" edge="1" parent="1">
          <mxGeometry width="50" height="50" relative="1" as="geometry">
            <mxPoint x="1800" y="40" as="sourcePoint" />
            <mxPoint x="970" y="40" as="targetPoint" />
          </mxGeometry>
        </mxCell>
        <mxCell id="XiqiXXjmQKmeYjPqb1oR-97" value="" style="endArrow=classic;html=1;rounded=0;entryX=0.375;entryY=-0.05;entryDx=0;entryDy=0;entryPerimeter=0;" edge="1" parent="1">
          <mxGeometry width="50" height="50" relative="1" as="geometry">
            <mxPoint x="970" y="40" as="sourcePoint" />
            <mxPoint x="970" y="147" as="targetPoint" />
          </mxGeometry>
        </mxCell>
        <mxCell id="XiqiXXjmQKmeYjPqb1oR-104" value="" style="edgeStyle=orthogonalEdgeStyle;rounded=0;orthogonalLoop=1;jettySize=auto;html=1;" edge="1" parent="1" source="XiqiXXjmQKmeYjPqb1oR-101" target="XiqiXXjmQKmeYjPqb1oR-103">
          <mxGeometry relative="1" as="geometry" />
        </mxCell>
        <mxCell id="XiqiXXjmQKmeYjPqb1oR-113" value="Y" style="edgeLabel;html=1;align=center;verticalAlign=middle;resizable=0;points=[];" vertex="1" connectable="0" parent="XiqiXXjmQKmeYjPqb1oR-104">
          <mxGeometry x="-0.1477" relative="1" as="geometry">
            <mxPoint as="offset" />
          </mxGeometry>
        </mxCell>
        <mxCell id="XiqiXXjmQKmeYjPqb1oR-106" value="" style="edgeStyle=orthogonalEdgeStyle;rounded=0;orthogonalLoop=1;jettySize=auto;html=1;" edge="1" parent="1" source="XiqiXXjmQKmeYjPqb1oR-101" target="XiqiXXjmQKmeYjPqb1oR-105">
          <mxGeometry relative="1" as="geometry" />
        </mxCell>
        <mxCell id="XiqiXXjmQKmeYjPqb1oR-114" value="N" style="edgeLabel;html=1;align=center;verticalAlign=middle;resizable=0;points=[];" vertex="1" connectable="0" parent="XiqiXXjmQKmeYjPqb1oR-106">
          <mxGeometry x="-0.0108" y="2" relative="1" as="geometry">
            <mxPoint as="offset" />
          </mxGeometry>
        </mxCell>
        <mxCell id="XiqiXXjmQKmeYjPqb1oR-101" value="매칭 성공 여부" style="rhombus;whiteSpace=wrap;html=1;" vertex="1" parent="1">
          <mxGeometry x="1940" y="1000" width="121.5" height="80" as="geometry" />
        </mxCell>
        <mxCell id="XiqiXXjmQKmeYjPqb1oR-103" value="채팅방 생성" style="whiteSpace=wrap;html=1;" vertex="1" parent="1">
          <mxGeometry x="2120" y="1010" width="120" height="60" as="geometry" />
        </mxCell>
        <mxCell id="XiqiXXjmQKmeYjPqb1oR-105" value="사용자 취소 여부" style="rhombus;whiteSpace=wrap;html=1;" vertex="1" parent="1">
          <mxGeometry x="1940" y="780" width="117.75" height="80" as="geometry" />
        </mxCell>
        <mxCell id="XiqiXXjmQKmeYjPqb1oR-108" value="" style="endArrow=none;html=1;rounded=0;" edge="1" parent="1">
          <mxGeometry width="50" height="50" relative="1" as="geometry">
            <mxPoint x="2000" y="780" as="sourcePoint" />
            <mxPoint x="2000" y="20" as="targetPoint" />
          </mxGeometry>
        </mxCell>
        <mxCell id="XiqiXXjmQKmeYjPqb1oR-115" value="Y" style="edgeLabel;html=1;align=center;verticalAlign=middle;resizable=0;points=[];" vertex="1" connectable="0" parent="XiqiXXjmQKmeYjPqb1oR-108">
          <mxGeometry x="-0.5571" y="-2" relative="1" as="geometry">
            <mxPoint x="-2" as="offset" />
          </mxGeometry>
        </mxCell>
        <mxCell id="XiqiXXjmQKmeYjPqb1oR-109" value="" style="endArrow=none;html=1;rounded=0;" edge="1" parent="1">
          <mxGeometry width="50" height="50" relative="1" as="geometry">
            <mxPoint x="938.6666666666666" y="20" as="sourcePoint" />
            <mxPoint x="2000" y="20" as="targetPoint" />
          </mxGeometry>
        </mxCell>
        <mxCell id="XiqiXXjmQKmeYjPqb1oR-110" value="" style="endArrow=classic;html=1;rounded=0;" edge="1" parent="1">
          <mxGeometry width="50" height="50" relative="1" as="geometry">
            <mxPoint x="940" y="20" as="sourcePoint" />
            <mxPoint x="940" y="150" as="targetPoint" />
          </mxGeometry>
        </mxCell>
      </root>
    </mxGraphModel>
  </diagram>
</mxfile>
